<?xml version="1.0" standalone="no"?>
<!DOCTYPE svg PUBLIC "-//W3C//DTD SVG 20010904//EN"
 "http://www.w3.org/TR/2001/REC-SVG-20010904/DTD/svg10.dtd">
<svg version="1.0" xmlns="http://www.w3.org/2000/svg"
 width="230.000000pt" height="199.000000pt" viewBox="0 0 230.000000 199.000000"
 preserveAspectRatio="xMidYMid meet">

<g transform="translate(0.000000,199.000000) scale(0.100000,-0.100000)"
fill="#000000" stroke="none">
<path d="M1140 1673 c-7 -23 -26 -58 -43 -78 -27 -33 -34 -36 -68 -33 -33 3
-39 0 -39 -15 0 -15 -5 -17 -29 -12 -22 5 -45 -2 -89 -24 -33 -17 -64 -36 -67
-42 -4 -6 7 -3 25 6 37 19 115 24 173 12 37 -8 38 -7 32 14 -8 23 -7 23 18 6
33 -21 38 -21 30 1 -6 15 -5 15 10 3 9 -7 22 -31 29 -52 10 -35 9 -41 -8 -54
-10 -8 -33 -15 -51 -15 -25 0 -31 -4 -27 -15 4 -9 0 -15 -8 -15 -11 0 -58 -77
-58 -95 0 -3 22 17 49 45 41 42 51 48 61 35 10 -13 15 -12 31 8 23 28 24 18 2
-27 -12 -27 -20 -33 -29 -25 -16 13 -27 7 -55 -34 l-22 -32 29 27 c23 22 33
25 42 16 9 -9 18 -6 37 12 28 27 29 25 14 -19 -9 -25 -16 -31 -31 -28 -12 4
-21 -1 -25 -11 -3 -9 -16 -44 -29 -77 -25 -65 -6 -51 27 20 16 35 19 37 19 15
l1 -25 19 23 c11 13 25 42 32 64 l11 39 18 -47 c10 -26 25 -55 34 -63 13 -14
15 -13 15 9 0 21 3 19 19 -15 33 -71 52 -85 27 -20 -13 33 -26 68 -29 77 -4
10 -13 15 -25 11 -15 -3 -22 3 -31 28 -15 44 -14 46 14 19 19 -18 28 -21 37
-12 9 9 19 6 42 -16 l29 -27 -28 38 c-29 39 -39 44 -51 26 -4 -8 -14 1 -25 22
-23 44 -24 61 -1 31 16 -21 20 -22 31 -8 12 14 19 10 62 -34 27 -28 49 -48 49
-45 0 18 -47 95 -58 95 -8 0 -12 6 -8 15 4 11 -2 15 -27 15 -18 0 -41 7 -51
15 -17 13 -18 19 -8 54 7 21 19 44 27 51 13 11 14 10 9 -4 -8 -20 0 -20 33 1
25 17 26 17 18 -6 -7 -22 -5 -23 19 -17 66 16 113 17 156 2 65 -22 61 -12 -10
24 -46 23 -69 30 -91 25 -24 -5 -29 -3 -29 12 0 15 -6 18 -39 15 -34 -3 -41 0
-70 34 -17 21 -31 43 -31 49 -1 5 -7 24 -14 40 l-13 30 -13 -42z"/>
<path d="M1909 1355 c38 -43 40 -83 9 -134 l-23 -36 30 19 c59 37 85 68 85
102 0 17 -6 34 -12 37 -7 3 -37 15 -67 26 l-54 22 32 -36z"/>
<path d="M348 1358 c-43 -18 -48 -24 -48 -52 0 -33 26 -65 83 -101 l29 -19
-21 35 c-27 43 -27 83 0 125 24 39 21 40 -43 12z"/>
<path d="M176 1361 c-9 -13 2 -57 26 -104 17 -34 17 -40 3 -60 -27 -38 -17
-48 21 -22 20 14 43 25 51 25 9 0 2 16 -21 43 -19 24 -44 62 -54 86 -11 24
-23 38 -26 32z"/>
<path d="M2107 1326 c-10 -24 -33 -60 -52 -81 -39 -42 -41 -45 -21 -45 7 0 30
-11 50 -25 38 -26 48 -16 21 23 -14 19 -14 25 1 54 20 37 35 106 25 112 -4 3
-14 -15 -24 -38z"/>
<path d="M555 1246 c28 -7 66 -22 85 -34 l35 -22 -45 0 c-25 -1 -56 -7 -70
-14 -24 -14 -24 -14 20 -26 25 -6 58 -15 74 -20 25 -9 27 -8 15 7 -12 14 -11
15 11 8 14 -4 37 -16 52 -26 40 -29 42 -23 14 26 -15 25 -24 45 -21 45 9 0
-46 45 -72 59 -12 6 -50 11 -85 10 l-63 -1 50 -12z"/>
<path d="M1655 1248 c-26 -14 -78 -58 -70 -58 3 0 -6 -20 -21 -45 -28 -49 -26
-55 14 -26 15 10 38 22 52 26 22 7 23 6 11 -8 -12 -15 -9 -15 30 -3 24 8 57
17 74 21 l30 7 -25 13 c-14 8 -45 14 -70 15 l-45 0 35 22 c19 12 58 27 85 34
l50 12 -65 1 c-36 0 -74 -5 -85 -11z"/>
<path d="M781 1206 c-14 -35 -4 -72 35 -123 34 -45 43 -35 13 14 -13 21 -26
61 -30 88 l-5 50 -13 -29z"/>
<path d="M1508 1181 c-3 -32 -15 -66 -32 -92 -36 -54 -10 -45 29 9 30 44 39
102 18 123 -7 7 -12 -4 -15 -40z"/>
<path d="M932 1187 c-12 -15 -21 -180 -8 -167 4 4 12 39 16 77 4 37 11 76 15
86 8 20 -8 23 -23 4z"/>
<path d="M1350 1185 c7 -8 16 -47 20 -86 11 -100 26 -104 22 -6 -4 83 -12 107
-39 107 -13 0 -13 -3 -3 -15z"/>
<path d="M330 1148 c-49 -13 -65 -30 -51 -56 9 -16 5 -33 -21 -88 -18 -39 -34
-90 -36 -121 -4 -50 6 -188 13 -181 2 2 9 35 15 73 13 82 36 136 92 223 l41
63 -21 15 c-26 18 -28 49 -5 63 27 14 12 19 -27 9z"/>
<path d="M1948 1140 c17 -13 22 -26 17 -40 -3 -11 -11 -20 -16 -20 -24 0 -18
-32 14 -77 55 -77 78 -131 93 -217 8 -44 16 -81 18 -84 8 -8 18 132 13 182 -3
29 -19 83 -36 120 -24 53 -28 72 -20 87 16 31 -2 46 -76 63 l-30 6 23 -20z"/>
<path d="M455 1141 c-37 -8 -41 -27 -20 -91 18 -55 30 -63 39 -25 6 22 12 25
47 25 55 0 77 -14 95 -61 19 -46 65 -88 105 -96 34 -6 46 -19 51 -53 l3 -25
19 27 c42 63 28 166 -27 194 -17 9 -69 20 -116 23 -100 9 -125 20 -139 61 -6
16 -15 29 -19 29 -4 -1 -21 -4 -38 -8z m280 -129 c7 -17 16 -21 32 -17 34 8
50 -28 24 -54 -41 -41 -141 2 -141 60 0 30 12 39 50 36 15 -1 29 -11 35 -25z"/>
<path d="M1799 1120 c-15 -42 -40 -52 -140 -61 -47 -3 -99 -14 -116 -23 -55
-28 -70 -124 -31 -186 22 -34 22 -35 26 -10 5 35 16 45 61 59 44 13 89 60 98
101 6 33 38 50 93 50 34 0 41 -4 46 -25 9 -37 20 -31 38 22 19 56 20 82 4 87
-60 19 -69 17 -79 -14z m-151 -92 c34 -34 -6 -91 -70 -101 -48 -7 -73 11 -64
47 5 22 10 25 33 20 19 -5 24 -3 21 7 -5 15 26 38 53 39 8 0 20 -5 27 -12z"/>
<path d="M510 992 c0 -3 7 -14 17 -24 15 -17 15 -18 -2 -18 -16 0 -16 -3 6
-26 25 -27 89 -64 110 -64 7 0 -3 10 -22 23 -22 15 -36 34 -42 58 -6 26 -16
38 -38 46 -16 6 -29 9 -29 5z"/>
<path d="M1769 987 c-19 -7 -30 -22 -38 -49 -8 -26 -23 -45 -44 -58 -18 -11
-26 -20 -19 -20 22 0 86 37 111 64 22 23 22 26 6 26 -17 0 -17 1 0 20 22 25
18 29 -16 17z"/>
<path d="M427 932 c-15 -16 -37 -65 -37 -81 0 -4 11 -13 25 -19 27 -12 48 -69
33 -89 -12 -15 4 -45 38 -72 37 -29 90 -27 137 5 46 31 44 40 -4 20 -70 -28
-88 -28 -114 -2 -32 32 -32 52 3 64 l27 10 -25 1 c-23 1 -25 4 -22 40 3 33 1
39 -18 44 -20 5 -22 11 -18 51 6 50 0 56 -25 28z"/>
<path d="M1856 926 c9 -36 -3 -76 -22 -76 -13 0 -15 -9 -12 -40 3 -37 2 -40
-22 -41 l-25 -1 28 -10 c34 -12 34 -32 2 -64 -26 -26 -44 -26 -114 2 -48 20
-50 11 -4 -20 47 -32 100 -34 137 -5 34 27 50 57 38 72 -15 20 6 77 34 89 20
10 24 17 19 37 -7 31 -36 73 -54 79 -8 3 -10 -4 -5 -22z"/>
<path d="M1340 415 c0 -104 2 -125 15 -125 10 0 15 10 15 34 0 18 6 39 14 45
11 9 19 3 40 -34 18 -29 34 -45 47 -45 18 0 16 6 -16 56 l-36 57 32 33 c28 29
30 34 14 34 -11 0 -36 -17 -57 -37 l-38 -37 0 72 c0 57 -3 72 -15 72 -13 0
-15 -21 -15 -125z"/>
<path d="M850 345 c0 -104 2 -125 15 -125 11 0 15 12 15 47 0 37 3 44 12 35 7
-7 24 -12 39 -12 39 0 69 42 69 94 0 68 -48 104 -101 76 -13 -7 -19 -7 -19 0
0 5 -7 10 -15 10 -13 0 -15 -21 -15 -125z m108 83 c16 -16 16 -80 0 -96 -7 -7
-21 -12 -33 -12 -31 0 -45 19 -45 60 0 41 14 60 45 60 12 0 26 -5 33 -12z"/>
<path d="M1059 451 c-29 -24 -18 -39 15 -21 29 15 76 6 76 -15 0 -9 -16 -16
-45 -21 -71 -10 -97 -51 -57 -87 23 -21 51 -22 80 -1 12 8 22 11 22 6 0 -16
32 -24 44 -11 8 8 8 13 -1 16 -8 3 -13 25 -13 59 0 41 -5 59 -20 74 -25 25
-71 26 -101 1z m91 -91 c0 -35 -74 -56 -87 -25 -7 20 -1 26 39 35 48 12 48 12
48 -10z"/>
<path d="M1240 380 c0 -53 4 -90 10 -90 6 0 10 24 10 53 0 55 20 97 46 97 8 0
14 7 14 15 0 20 -19 19 -42 -2 -17 -15 -18 -15 -18 0 0 10 -4 17 -10 17 -6 0
-10 -37 -10 -90z"/>
</g>
</svg>
